<?xml version="1.0" standalone="no"?>
<!DOCTYPE svg PUBLIC "-//W3C//DTD SVG 20010904//EN"
 "http://www.w3.org/TR/2001/REC-SVG-20010904/DTD/svg10.dtd">
<svg version="1.0" xmlns="http://www.w3.org/2000/svg"
 width="97.000000pt" height="97.000000pt" viewBox="0 0 97.000000 97.000000"
 preserveAspectRatio="xMidYMid meet">
<metadata>
Created by potrace 1.11, written by Peter Selinger 2001-2013
</metadata>
<g transform="translate(0.000000,97.000000) scale(0.100000,-0.100000)"
fill="#000000" stroke="none">
<path d="M0 485 l0 -395 485 0 485 0 0 395 0 395 -485 0 -485 0 0 -395z m350
28 c0 -171 -6 -197 -52 -222 -21 -12 -33 -13 -66 -3 -55 17 -47 41 11 39 60
-3 67 16 67 196 0 140 1 147 20 147 19 0 20 -7 20 -157z m150 60 l1 -88 82 88
c68 71 88 87 112 87 29 0 27 -2 -49 -79 l-79 -79 87 -106 c85 -103 87 -106 59
-106 -24 0 -39 14 -98 90 -38 50 -71 90 -74 90 -2 0 -13 -7 -23 -17 -14 -13
-18 -31 -18 -90 0 -71 -1 -73 -25 -73 l-25 0 0 185 0 185 25 0 c25 0 25 -1 25
-87z"/>
</g>
</svg>
