<?xml version="1.0" standalone="no"?>
<!DOCTYPE svg PUBLIC "-//W3C//DTD SVG 20010904//EN"
 "http://www.w3.org/TR/2001/REC-SVG-20010904/DTD/svg10.dtd">
<svg version="1.0" xmlns="http://www.w3.org/2000/svg"
 width="1440.000000pt" height="1440.000000pt" viewBox="0 0 1440.000000 1440.000000"
 preserveAspectRatio="xMidYMid meet">
<metadata>
Created by potrace 1.11, written by Peter Selinger 2001-2013
</metadata>
<g transform="translate(0.000000,1440.000000) scale(0.100000,-0.100000)"
fill="#000000" stroke="none">
<path d="M8581 10813 c-62 -15 -156 -63 -191 -97 -43 -40 -90 -95 -90 -105 0
-5 -3 -11 -7 -13 -26 -11 -74 -169 -73 -237 1 -40 2 -617 1 -641 0 -8 0 -80 0
-160 1 -80 1 -152 0 -160 0 -8 0 -80 0 -160 1 -80 1 -152 0 -160 0 -8 0 -80 0
-160 1 -80 1 -152 1 -160 -1 -8 -1 -123 -1 -255 0 -132 0 -246 0 -252 0 -7 0
-114 0 -238 0 -124 0 -233 0 -242 0 -10 0 -148 1 -308 0 -159 0 -297 -1 -305
0 -8 0 -80 0 -160 1 -80 1 -152 0 -160 0 -8 0 -80 0 -160 1 -80 1 -152 0 -160
0 -8 0 -80 0 -160 1 -80 1 -152 1 -160 -1 -8 -1 -123 -1 -255 0 -132 0 -246 0
-252 0 -7 0 -114 0 -238 0 -237 0 -240 -2 -282 -1 -21 -67 -93 -310 -335
l-308 -308 -851 0 -851 0 -395 395 c-218 217 -415 408 -438 424 -92 64 -237
93 -351 72 -61 -11 -195 -68 -195 -82 0 -5 -5 -9 -10 -9 -15 0 -88 -80 -117
-128 -44 -74 -79 -193 -75 -257 5 -95 43 -206 92 -271 36 -48 950 -966 1002
-1007 39 -31 115 -66 175 -82 50 -13 212 -15 1185 -15 620 1 1130 5 1133 9 2
5 21 12 40 15 87 17 142 65 641 565 524 526 514 515 514 530 0 5 3 11 8 13 10
4 50 97 57 133 3 17 7 41 10 55 8 39 9 106 2 116 -3 6 -2 16 3 23 4 8 4 27 0
42 -5 16 -5 31 -2 33 4 2 5 165 2 361 -3 196 -2 359 1 361 4 2 3 20 -1 39 -4
19 -5 37 -1 39 3 2 4 93 1 201 -3 108 -2 199 1 201 4 2 3 20 -1 39 -4 19 -5
37 -1 39 3 2 4 165 1 361 -3 196 -2 359 1 361 4 2 3 20 -1 39 -4 19 -5 37 -1
39 3 2 4 93 1 201 -3 108 -2 199 1 201 4 2 3 20 -1 39 -4 19 -5 37 -1 39 3 2
4 165 1 361 -3 196 -2 359 1 361 4 2 3 20 -1 39 -4 19 -5 37 -1 39 3 2 4 93 1
201 -3 108 -2 199 1 201 4 2 3 20 -1 39 -4 19 -5 37 -1 39 3 2 4 165 1 361 -3
196 -2 359 1 361 4 2 3 20 -1 39 -4 19 -5 37 -1 39 3 2 4 93 1 201 -3 108 -2
199 1 201 4 2 3 19 -1 38 -4 19 -5 37 -2 40 2 3 4 46 3 96 -4 164 -47 275
-147 374 -116 115 -291 161 -453 119z"/>
</g>
</svg>
